<svg width="24" height="23" viewBox="0 0 24 23" fill="none" xmlns="http://www.w3.org/2000/svg">
<path d="M0.5 10.5733C0.5 8.19817 2.41385 6.27272 4.77471 6.27272H6.67984C9.04069 6.27272 10.9545 8.19817 10.9545 10.5733V18.6994C10.9545 21.0745 9.04069 23 6.67983 23H4.77471C2.41385 23 0.5 21.0745 0.5 18.6994V10.5733Z" fill="white"/>
<path d="M6.67977 22.6416V23H4.77477V22.6416H6.67977ZM10.5983 18.6994V10.5734C10.5983 8.39611 8.84392 6.63111 6.67977 6.63111H4.77477C2.61062 6.63111 0.856231 8.39611 0.856231 10.5734V18.6994C0.856231 20.8766 2.61062 22.6416 4.77477 22.6416V23L4.66449 22.9986C2.39119 22.9407 0.558919 21.0974 0.501392 18.8103L0.5 18.6994V10.5734C0.5 8.23528 2.35457 6.33297 4.66449 6.27412L4.77477 6.27272H6.67977L6.7904 6.27412C9.10023 6.33307 10.9545 8.23534 10.9545 10.5734V18.6994L10.9532 18.8103C10.8956 21.0973 9.06361 22.9406 6.7904 22.9986L6.67977 23V22.6416C8.84392 22.6416 10.5983 20.8766 10.5983 18.6994Z" fill="white"/>
<path d="M13.0453 4.27471C13.0453 1.91385 14.9592 0 17.3201 0H19.2252C21.586 0 23.4999 1.91385 23.4999 4.27471V6.17984C23.4999 8.54069 21.586 10.4545 19.2252 10.4545H17.3201C14.9592 10.4545 13.0453 8.54069 13.0453 6.17983V4.27471Z" fill="white"/>
<path d="M19.2251 10.0983V10.4545H17.3201V10.0983H19.2251ZM23.1437 6.17977V4.27477C23.1437 2.11062 21.3893 0.356231 19.2251 0.356231H17.3201C15.156 0.356231 13.4016 2.11062 13.4016 4.27477V6.17977C13.4016 8.34392 15.156 10.0983 17.3201 10.0983V10.4545L17.2098 10.4532C14.9366 10.3956 13.1044 8.56358 13.0467 6.2904L13.0453 6.17977V4.27477C13.0453 1.95075 14.8999 0.0598847 17.2098 0.00139153L17.3201 0H19.2251L19.3357 0.00139153C21.6456 0.0599881 23.4999 1.95082 23.4999 4.27477V6.17977L23.4985 6.2904C23.4408 8.56351 21.6089 10.3955 19.3357 10.4532L19.2251 10.4545V10.0983C21.3893 10.0983 23.1437 8.34392 23.1437 6.17977Z" fill="white"/>
<path d="M19.3182 14.6364C19.3182 13.4816 20.2543 12.5455 21.4091 12.5455V12.5455C22.5639 12.5455 23.5 13.4816 23.5 14.6364V14.6364C23.5 15.7911 22.5639 16.7273 21.4091 16.7273V16.7273C20.2543 16.7273 19.3182 15.7911 19.3182 14.6364V14.6364Z" fill="white"/>
<path d="M23.1522 14.6362C23.1521 13.6736 22.3715 12.8933 21.4089 12.8933C20.4464 12.8933 19.6661 13.6736 19.666 14.6362C19.666 15.5988 20.4463 16.3794 21.4089 16.3794V16.7273L21.3016 16.7246C20.2324 16.6704 19.3751 15.813 19.3209 14.7439L19.3182 14.6362C19.3182 13.4815 20.2543 12.5455 21.4089 12.5455L21.5166 12.5482C22.6213 12.6042 23.4999 13.5176 23.5 14.6362L23.4973 14.7439C23.4413 15.8486 22.5276 16.7273 21.4089 16.7273V16.3794C22.3716 16.3794 23.1522 15.5988 23.1522 14.6362Z" fill="white"/>
<path d="M13.0453 14.6364C13.0453 13.4816 13.9815 12.5455 15.1363 12.5455V12.5455C16.291 12.5455 17.2272 13.4816 17.2272 14.6364V14.6364C17.2272 15.7911 16.291 16.7273 15.1363 16.7273V16.7273C13.9815 16.7273 13.0453 15.7911 13.0453 14.6364V14.6364Z" fill="white"/>
<path d="M16.8793 14.6362C16.8793 13.6736 16.0987 12.8933 15.1361 12.8933C14.1735 12.8933 13.3932 13.6736 13.3932 14.6362C13.3932 15.5988 14.1735 16.3794 15.1361 16.3794V16.7273L15.0287 16.7246C13.9596 16.6704 13.1023 15.813 13.0481 14.7439L13.0453 14.6362C13.0454 13.4815 13.9814 12.5455 15.1361 12.5455L15.2438 12.5482C16.3485 12.6042 17.2271 13.5176 17.2272 14.6362L17.2244 14.7439C17.1685 15.8486 16.2548 16.7273 15.1361 16.7273V16.3794C16.0987 16.3794 16.8793 15.5988 16.8793 14.6362Z" fill="white"/>
<path d="M0.5 2.09091C0.5 0.936132 1.45869 0 2.64129 0H8.81325C9.99586 0 10.9545 0.936132 10.9545 2.09091V2.09091C10.9545 3.24569 9.99586 4.18182 8.81325 4.18182H2.64129C1.45869 4.18182 0.5 3.24569 0.5 2.09091V2.09091Z" fill="white"/>
<path d="M8.81333 3.83398V4.18182H2.64121V3.83398H8.81333ZM10.5983 2.09074C10.5983 1.12815 9.79917 0.347834 8.81333 0.347834H2.64121C1.65542 0.347891 0.85629 1.12818 0.856231 2.09074C0.856231 3.05334 1.65538 3.83393 2.64121 3.83398V4.18182L2.53128 4.1791C1.43629 4.12498 0.558276 3.26758 0.502783 2.19842L0.5 2.09074C0.500057 0.972081 1.39984 0.0586407 2.53128 0.00271745L2.64121 0H8.81333L8.92361 0.00271745C10.055 0.0587386 10.9545 0.972147 10.9545 2.09074L10.9518 2.19842C10.8963 3.26751 10.0185 4.12489 8.92361 4.1791L8.81333 4.18182V3.83398C9.79921 3.83398 10.5983 3.05338 10.5983 2.09074Z" fill="white"/>
<path d="M13.1735 19.8579C13.5338 19.0234 14.546 18.6107 15.4505 18.9215L15.4934 18.9368L16.8286 19.4316L16.9187 19.4639C17.854 19.7861 18.8876 19.7689 19.8114 19.4137L21.0304 18.9449L21.0731 18.9291C21.9732 18.6075 22.9911 19.0079 23.3631 19.8381C23.735 20.6682 23.3225 21.6186 22.4412 21.982L22.3989 21.9989L21.1798 22.4676C19.3933 23.1545 17.3909 23.1772 15.5885 22.5329L15.5029 22.5016L14.1678 22.007L14.1252 21.9906C13.2389 21.6378 12.8131 20.6925 13.1735 19.8579Z" fill="white"/>
</svg>
