<svg width="44" height="44" viewBox="0 0 44 44" fill="none" xmlns="http://www.w3.org/2000/svg">
<circle cx="22.6666" cy="21.3333" r="21.3333" fill="#101010"/>
<path d="M15.9289 14.9289C19.8342 11.0237 26.1663 11.0237 30.0715 14.9289C33.9768 18.8342 33.9768 25.1663 30.0715 29.0715C26.1663 32.9768 19.8342 32.9768 15.9289 29.0715C12.0237 25.1663 12.0237 18.8342 15.9289 14.9289ZM28.6574 16.343C25.5333 13.2188 20.4672 13.2188 17.343 16.343C14.2188 19.4672 14.2188 24.5333 17.343 27.6574C20.4672 30.7816 25.5333 30.7816 28.6574 27.6574C31.7816 24.5333 31.7816 19.4672 28.6574 16.343ZM24.0002 22.0002H26.5002V24.0002H23.0002C22.4479 24.0002 22.0002 23.5525 22.0002 23.0002V18.5002H24.0002V22.0002Z" fill="white"/>
</svg>
